# xmcd
#
# Track frame offsets:
#	150
#	19141
#	37531
#	54160
#	69893
#	88558
#	104227
#	116835
#	131823
#	149889
#	166894
#	184594
#	201354
#	212945
#	233026
#	248830
#	262559
#
# Disc length: 3677 seconds
#
# Revision: 0
# Processed by: cddbd v1.5.1PL0 Copyright (c) Steve Scherf et al.
# Submitted via: EasyCDDAExtractor 8.0.1.1
#
DISCID=ee0e5b11
DTITLE=Various Artist - CDX 370
DYEAR=2005
DGENRE=Country
TTITLE0=Brad Paisley - Alcohol
TTITLE1=Little Big Town - Boondocks
TTITLE2=Keni Thomas - Gloryland
TTITLE3=Brice Long - It's Only Monday
TTITLE4=Billy Currington - Must Be Doin' Somethin' Right
TTITLE5=Cowboy Crush - Nobody Ever Died Of A Broken Heart
TTITLE6=The Wrights - On The ROcks
TTITLE7=Brooks and Dunn - Play Something Country
TTITLE8=Kerry Harvick - That's What Your Love Does
TTITLE9=Lane Brody - Your Wildest Dreams
TTITLE10=Danni O'Neill - Breakin' It Down
TTITLE11=Madonna Tassi - Man Of My Dreams
TTITLE12=Todd Fritsch - I Got Mexico
TTITLE13=K Wilder - Come Out And Dance
TTITLE14=Vince Hatfield - The Ones Left Behind
TTITLE15=Tresa Street - Rockin' A Baby
TTITLE16=Tod Barrett - Redneck Lawyer
EXTD=
EXTT0=
EXTT1=
EXTT2=
EXTT3=
EXTT4=
EXTT5=
EXTT6=
EXTT7=
EXTT8=
EXTT9=
EXTT10=
EXTT11=
EXTT12=
EXTT13=
EXTT14=
EXTT15=
EXTT16=
PLAYORDER=
